<?xml version="1.0" encoding="iso-8859-1"?>
<!-- Generator: Adobe Illustrator 19.0.0, SVG Export Plug-In . SVG Version: 6.00 Build 0)  -->
<svg xmlns="http://www.w3.org/2000/svg" xmlns:xlink="http://www.w3.org/1999/xlink" version="1.1" id="Layer_1" x="0px" y="0px" viewBox="0 0 511.999 511.999" style="enable-background:new 0 0 511.999 511.999;" xml:space="preserve" width="512px" height="512px">
<g>
	<g>
		<g>
			<path d="M479.59,384.003l30.976-46.464c1.741-2.62,1.911-5.982,0.427-8.764c-1.485-2.773-4.378-4.506-7.526-4.506h-51.2v-34.133     c0-4.719-3.814-8.533-8.533-8.533h-37.675c13.619-45.858,20.608-93.133,20.608-140.732v-29.935c0-2.927-1.502-5.649-3.977-7.219     L260.557,1.317c-2.782-1.749-6.332-1.749-9.114,0L89.31,103.717c-2.475,1.57-3.977,4.292-3.977,7.219v29.935     c0,47.599,6.989,94.874,20.608,140.732H68.266c-4.719,0-8.533,3.814-8.533,8.533v34.133h-51.2c-3.149,0-6.042,1.732-7.526,4.506     c-1.485,2.782-1.314,6.144,0.427,8.764l30.976,46.464L1.433,430.467c-1.741,2.62-1.911,5.982-0.427,8.764     c1.485,2.773,4.378,4.506,7.526,4.506h76.8c4.719,0,8.533-3.814,8.533-8.533V401.07h70.494     c21.982,41.301,49.357,76.023,85.948,108.757c1.613,1.451,3.652,2.167,5.683,2.167c2.039,0,4.096-0.725,5.717-2.185     c36.582-32.734,63.957-67.447,85.922-108.74h70.502v34.133c0,4.719,3.814,8.533,8.533,8.533h76.8     c3.149,0,6.042-1.732,7.526-4.506c1.485-2.782,1.314-6.144-0.427-8.764L479.59,384.003z M119.466,129.752     c0-2.927,1.502-5.649,3.977-7.219l128-80.836c2.782-1.749,6.332-1.749,9.114,0l128,80.836c2.475,1.57,3.977,4.292,3.977,7.219     v11.119c0,47.65-7.578,94.925-22.34,140.732h-17.86c15.351-45.73,23.134-93.056,23.134-140.732v-6.417L256,59.002     l-119.467,75.452v6.417c0,47.676,7.782,95.002,23.134,140.732h-17.86c-14.763-45.807-22.34-93.082-22.34-140.732V129.752z      M196.266,170.67c0-32.93,26.803-59.733,59.733-59.733c32.93,0,59.733,26.803,59.733,59.733c0,20.924-10.837,39.339-27.17,50.014     c23.637,11.127,40.73,33.894,43.733,60.919h-17.169c-4.156-28.911-29.082-51.2-59.128-51.2c-30.046,0-54.972,22.289-59.127,51.2     h-17.169c3.004-27.025,20.096-49.792,43.733-60.919C207.104,210.008,196.266,191.593,196.266,170.67z M76.8,426.67H24.473     l25.293-37.931c1.911-2.867,1.911-6.605,0-9.472l-25.293-37.931h35.26v51.2v8.533c0,4.719,3.814,8.533,8.533,8.533H76.8V426.67z      M262.118,462.134c-1.604,1.655-3.806,2.586-6.118,2.586c-2.313,0-4.514-0.93-6.118-2.586     c-14.711-15.138-30.225-33.126-44.587-61.065h19.285c10.206,18.133,20.941,31.428,31.42,42.735     c10.479-11.307,21.214-24.602,31.42-42.735h19.285C292.343,429.008,276.83,446.996,262.118,462.134z M342.57,384.003h-41.054     h-91.034h-41.054H76.8v-51.2V298.67h40.627h36.147h204.851h36.147H435.2v34.133v51.2H342.57z M435.2,426.67v-17.067h8.533     c4.719,0,8.533-3.814,8.533-8.533v-8.533v-51.2h35.26l-25.293,37.931c-1.911,2.867-1.911,6.605,0,9.472l25.293,37.931H435.2z" fill="#FFFFFF"/>
			<path d="M153.6,332.803h34.133c4.719,0,8.533-3.814,8.533-8.533s-3.814-8.533-8.533-8.533H153.6     c-4.719,0-8.533,3.814-8.533,8.533S148.881,332.803,153.6,332.803z" fill="#FFFFFF"/>
			<path d="M221.866,332.803h51.2c4.719,0,8.533-3.814,8.533-8.533s-3.814-8.533-8.533-8.533h-51.2     c-4.719,0-8.533,3.814-8.533,8.533S217.147,332.803,221.866,332.803z" fill="#FFFFFF"/>
			<path d="M230.4,349.87h-76.8c-4.719,0-8.533,3.814-8.533,8.533s3.814,8.533,8.533,8.533h76.8c4.719,0,8.533-3.814,8.533-8.533     S235.119,349.87,230.4,349.87z" fill="#FFFFFF"/>
			<path d="M358.4,349.87h-17.067c-4.719,0-8.533,3.814-8.533,8.533s3.814,8.533,8.533,8.533H358.4c4.719,0,8.533-3.814,8.533-8.533     S363.119,349.87,358.4,349.87z" fill="#FFFFFF"/>
			<path d="M307.2,349.87h-42.667c-4.719,0-8.533,3.814-8.533,8.533s3.814,8.533,8.533,8.533H307.2c4.719,0,8.533-3.814,8.533-8.533     S311.919,349.87,307.2,349.87z" fill="#FFFFFF"/>
			<path d="M358.4,315.736h-42.667c-4.719,0-8.533,3.814-8.533,8.533s3.814,8.533,8.533,8.533H358.4     c4.719,0,8.533-3.814,8.533-8.533S363.119,315.736,358.4,315.736z" fill="#FFFFFF"/>
			<path d="M256,213.336c23.526,0,42.667-19.14,42.667-42.667c0-23.526-19.14-42.667-42.667-42.667     c-23.526,0-42.667,19.14-42.667,42.667C213.333,194.196,232.473,213.336,256,213.336z" fill="#FFFFFF"/>
		</g>
	</g>
</g>
<g>
</g>
<g>
</g>
<g>
</g>
<g>
</g>
<g>
</g>
<g>
</g>
<g>
</g>
<g>
</g>
<g>
</g>
<g>
</g>
<g>
</g>
<g>
</g>
<g>
</g>
<g>
</g>
<g>
</g>
</svg>
