<?xml version="1.0" encoding="iso-8859-1"?>
<!-- Generator: Adobe Illustrator 19.0.0, SVG Export Plug-In . SVG Version: 6.00 Build 0)  -->
<svg xmlns="http://www.w3.org/2000/svg" xmlns:xlink="http://www.w3.org/1999/xlink" version="1.1" id="Layer_1" x="0px" y="0px" viewBox="0 0 511.999 511.999" style="enable-background:new 0 0 511.999 511.999;" xml:space="preserve" width="512px" height="512px">
<g>
	<g>
		<g>
			<path d="M479.59,384l30.976-46.464c1.741-2.62,1.911-5.982,0.427-8.764c-1.485-2.773-4.378-4.506-7.526-4.506h-51.2v-34.133     c0-4.719-3.814-8.533-8.533-8.533h-17.067V76.8c0-4.719-3.814-8.533-8.533-8.533H93.866c-4.719,0-8.533,3.814-8.533,8.533v204.8     H68.266c-4.719,0-8.533,3.814-8.533,8.533v34.133h-51.2c-3.149,0-6.042,1.732-7.526,4.506c-1.485,2.782-1.314,6.144,0.427,8.764     L32.409,384L1.433,430.464c-1.741,2.62-1.911,5.982-0.427,8.764c1.485,2.773,4.378,4.506,7.526,4.506h76.8     c4.719,0,8.533-3.814,8.533-8.533v-34.133h324.267V435.2c0,4.719,3.814,8.533,8.533,8.533h76.8c3.149,0,6.042-1.732,7.526-4.506     c1.485-2.782,1.314-6.144-0.427-8.764L479.59,384z M119.466,145.066c0-4.719,3.814-8.533,8.533-8.533     c14.362,0,25.6-11.238,25.6-25.6c0-4.719,3.814-8.533,8.533-8.533h187.733c4.719,0,8.533,3.814,8.533,8.533     c0,14.362,11.238,25.6,25.6,25.6c4.719,0,8.533,3.814,8.533,8.533v119.467c0,4.719-3.814,8.533-8.533,8.533     c-7.637,0-14.43,3.217-19.106,8.533h-19.942c5.504-12.757,16.939-21.982,30.515-24.738V152.78     c-16.947-3.311-30.003-16.367-33.314-33.314H169.847c-3.311,16.947-16.367,30.003-33.314,33.314v104.081     c13.577,2.756,25.011,11.981,30.515,24.738h-19.942c-4.676-5.316-11.469-8.533-19.106-8.533c-4.719,0-8.533-3.814-8.533-8.533     V145.066z M204.8,187.733c0-28.237,22.963-51.2,51.2-51.2s51.2,22.963,51.2,51.2c0,16.939-8.303,31.94-21.018,41.259     c20.096,9.967,34.586,29.483,37.495,52.608h-17.186c-4.079-24.183-25.165-42.667-50.492-42.667     c-25.327,0-46.413,18.483-50.492,42.667h-17.186c2.91-23.125,17.399-42.641,37.495-52.608     C213.103,219.673,204.8,204.672,204.8,187.733z M76.8,426.666H24.473l25.293-37.931c1.911-2.867,1.911-6.605,0-9.472     l-25.293-37.931h35.26v51.2c0,4.719,3.814,8.533,8.533,8.533H76.8V426.666z M85.333,384H76.8v-51.2v-34.133h17.067h67.089     h190.089h67.089H435.2V332.8V384h-8.533H85.333z M435.2,426.666v-25.6h8.533c4.719,0,8.533-3.814,8.533-8.533v-51.2h35.26     l-25.293,37.931c-1.911,2.867-1.911,6.605,0,9.472l25.293,37.931H435.2z" fill="#FFFFFF"/>
			<path d="M153.6,332.8h34.133c4.719,0,8.533-3.814,8.533-8.533s-3.814-8.533-8.533-8.533H153.6c-4.719,0-8.533,3.814-8.533,8.533     S148.881,332.8,153.6,332.8z" fill="#FFFFFF"/>
			<path d="M221.866,332.8h51.2c4.719,0,8.533-3.814,8.533-8.533s-3.814-8.533-8.533-8.533h-51.2c-4.719,0-8.533,3.814-8.533,8.533     S217.147,332.8,221.866,332.8z" fill="#FFFFFF"/>
			<path d="M230.4,349.866h-76.8c-4.719,0-8.533,3.814-8.533,8.533c0,4.719,3.814,8.533,8.533,8.533h76.8     c4.719,0,8.533-3.814,8.533-8.533C238.933,353.681,235.119,349.866,230.4,349.866z" fill="#FFFFFF"/>
			<path d="M358.4,349.866h-17.067c-4.719,0-8.533,3.814-8.533,8.533c0,4.719,3.814,8.533,8.533,8.533H358.4     c4.719,0,8.533-3.814,8.533-8.533C366.933,353.681,363.119,349.866,358.4,349.866z" fill="#FFFFFF"/>
			<path d="M307.2,349.866h-42.667c-4.719,0-8.533,3.814-8.533,8.533c0,4.719,3.814,8.533,8.533,8.533H307.2     c4.719,0,8.533-3.814,8.533-8.533C315.733,353.681,311.919,349.866,307.2,349.866z" fill="#FFFFFF"/>
			<path d="M358.4,315.733h-42.667c-4.719,0-8.533,3.814-8.533,8.533s3.814,8.533,8.533,8.533H358.4     c4.719,0,8.533-3.814,8.533-8.533S363.119,315.733,358.4,315.733z" fill="#FFFFFF"/>
			<path d="M256,221.866c18.825,0,34.133-15.309,34.133-34.133c0-18.825-15.309-34.133-34.133-34.133s-34.133,15.309-34.133,34.133     C221.866,206.558,237.175,221.866,256,221.866z" fill="#FFFFFF"/>
		</g>
	</g>
</g>
<g>
</g>
<g>
</g>
<g>
</g>
<g>
</g>
<g>
</g>
<g>
</g>
<g>
</g>
<g>
</g>
<g>
</g>
<g>
</g>
<g>
</g>
<g>
</g>
<g>
</g>
<g>
</g>
<g>
</g>
</svg>
