<?xml version="1.0" encoding="iso-8859-1"?>
<!-- Generator: Adobe Illustrator 19.0.0, SVG Export Plug-In . SVG Version: 6.00 Build 0)  -->
<svg xmlns="http://www.w3.org/2000/svg" xmlns:xlink="http://www.w3.org/1999/xlink" version="1.1" id="Layer_1" x="0px" y="0px" viewBox="0 0 511.999 511.999" style="enable-background:new 0 0 511.999 511.999;" xml:space="preserve" width="512px" height="512px">
<g>
	<g>
		<g>
			<path d="M479.59,401.066l30.976-46.464c1.741-2.62,1.911-5.982,0.427-8.764c-1.485-2.773-4.378-4.506-7.526-4.506h-51.2V307.2     c0-4.719-3.814-8.533-8.533-8.533H435.2V76.8c0-4.719-3.814-8.533-8.533-8.533h-25.6V25.6c0-4.719-3.814-8.533-8.533-8.533     H119.466c-4.719,0-8.533,3.814-8.533,8.533v42.667h-25.6c-4.719,0-8.533,3.814-8.533,8.533v221.867h-8.533     c-4.719,0-8.533,3.814-8.533,8.533v34.133h-51.2c-3.149,0-6.042,1.732-7.526,4.506c-1.485,2.782-1.314,6.144,0.427,8.764     l30.976,46.464L1.433,447.53c-1.741,2.62-1.911,5.982-0.427,8.764c1.485,2.773,4.378,4.506,7.526,4.506h76.8     c4.719,0,8.533-3.814,8.533-8.533v-34.133h50.202l107.025,75.247c1.476,1.033,3.191,1.553,4.907,1.553s3.43-0.521,4.907-1.553     l107.025-75.247h50.202v34.133c0,4.719,3.814,8.533,8.533,8.533h76.8c3.149,0,6.042-1.732,7.526-4.506     c1.485-2.782,1.314-6.144-0.427-8.764L479.59,401.066z M110.933,110.933c0-4.719,3.814-8.533,8.533-8.533h25.6V59.733     c0-4.719,3.814-8.533,8.533-8.533h204.8c4.719,0,8.533,3.814,8.533,8.533V102.4h25.6c4.719,0,8.533,3.814,8.533,8.533v187.733     H384v-179.2h-25.6c-4.719,0-8.533-3.814-8.533-8.533V68.266H162.133v42.667c0,4.719-3.814,8.533-8.533,8.533H128v179.2h-17.067     V110.933z M196.266,187.733C196.266,154.803,223.07,128,256,128c32.93,0,59.733,26.803,59.733,59.733     c0,20.924-10.837,39.339-27.17,50.014c23.637,11.127,40.73,33.894,43.733,60.919h-17.169c-4.156-28.911-29.082-51.2-59.128-51.2     c-30.046,0-54.972,22.289-59.127,51.2h-17.169c3.004-27.025,20.096-49.792,43.733-60.919     C207.104,227.072,196.266,208.657,196.266,187.733z M76.8,443.733H24.473l25.293-37.931c1.911-2.867,1.911-6.605,0-9.472     L24.473,358.4h35.26v51.2c0,4.719,3.814,8.533,8.533,8.533H76.8V443.733z M261.154,452.958c-1.527,1.152-3.336,1.724-5.154,1.724     c-1.818,0-3.627-0.572-5.154-1.724l-46.012-34.825h28.288L256,435.447l22.878-17.314h28.288L261.154,452.958z M365.226,401.066     H304.29h-96.58h-60.937h-61.44H76.8v-51.2v-34.133h8.533h34.133h273.067h34.133h8.533v34.133v51.2h-8.533H365.226z      M435.2,443.733v-25.6h8.533c4.719,0,8.533-3.814,8.533-8.533v-51.2h35.26l-25.293,37.931c-1.911,2.867-1.911,6.605,0,9.472     l25.293,37.931H435.2z" fill="#FFFFFF"/>
			<path d="M153.6,349.866h34.133c4.719,0,8.533-3.814,8.533-8.533s-3.814-8.533-8.533-8.533H153.6     c-4.719,0-8.533,3.814-8.533,8.533S148.881,349.866,153.6,349.866z" fill="#FFFFFF"/>
			<path d="M221.866,349.866h51.2c4.719,0,8.533-3.814,8.533-8.533s-3.814-8.533-8.533-8.533h-51.2     c-4.719,0-8.533,3.814-8.533,8.533S217.147,349.866,221.866,349.866z" fill="#FFFFFF"/>
			<path d="M230.4,366.933h-76.8c-4.719,0-8.533,3.814-8.533,8.533S148.881,384,153.6,384h76.8c4.719,0,8.533-3.814,8.533-8.533     S235.119,366.933,230.4,366.933z" fill="#FFFFFF"/>
			<path d="M358.4,366.933h-17.067c-4.719,0-8.533,3.814-8.533,8.533s3.814,8.533,8.533,8.533H358.4     c4.719,0,8.533-3.814,8.533-8.533S363.119,366.933,358.4,366.933z" fill="#FFFFFF"/>
			<path d="M307.2,366.933h-42.667c-4.719,0-8.533,3.814-8.533,8.533s3.814,8.533,8.533,8.533H307.2     c4.719,0,8.533-3.814,8.533-8.533S311.919,366.933,307.2,366.933z" fill="#FFFFFF"/>
			<path d="M358.4,332.8h-42.667c-4.719,0-8.533,3.814-8.533,8.533s3.814,8.533,8.533,8.533H358.4c4.719,0,8.533-3.814,8.533-8.533     S363.119,332.8,358.4,332.8z" fill="#FFFFFF"/>
			<path d="M256,230.4c23.526,0,42.667-19.14,42.667-42.667c0-23.526-19.14-42.667-42.667-42.667     c-23.526,0-42.667,19.14-42.667,42.667C213.333,211.259,232.473,230.4,256,230.4z" fill="#FFFFFF"/>
		</g>
	</g>
</g>
<g>
</g>
<g>
</g>
<g>
</g>
<g>
</g>
<g>
</g>
<g>
</g>
<g>
</g>
<g>
</g>
<g>
</g>
<g>
</g>
<g>
</g>
<g>
</g>
<g>
</g>
<g>
</g>
<g>
</g>
</svg>
